<?xml version="1.0" encoding="UTF-8" standalone="no"?>
<!-- Created with Inkscape (http://www.inkscape.org/) -->

<svg
   xmlns:dc="http://purl.org/dc/elements/1.1/"
   xmlns:cc="http://creativecommons.org/ns#"
   xmlns:rdf="http://www.w3.org/1999/02/22-rdf-syntax-ns#"
   xmlns:svg="http://www.w3.org/2000/svg"
   xmlns="http://www.w3.org/2000/svg"
   xmlns:sodipodi="http://sodipodi.sourceforge.net/DTD/sodipodi-0.dtd"
   xmlns:inkscape="http://www.inkscape.org/namespaces/inkscape"
   width="70"
   height="88"
   id="svg2"
   version="1.1"
   inkscape:version="0.48.4 r9939"
   sodipodi:docname="res2.svg">
  <defs
     id="defs4" />
  <sodipodi:namedview
     id="base"
     pagecolor="#ffffff"
     bordercolor="#666666"
     borderopacity="1.0"
     inkscape:pageopacity="0.0"
     inkscape:pageshadow="2"
     inkscape:zoom="15.839192"
     inkscape:cx="41.229886"
     inkscape:cy="92.937994"
     inkscape:document-units="px"
     inkscape:current-layer="layer1"
     showgrid="false"
     inkscape:window-width="1600"
     inkscape:window-height="834"
     inkscape:window-x="0"
     inkscape:window-y="27"
     inkscape:window-maximized="1"
     fit-margin-top="0"
     fit-margin-left="0"
     fit-margin-right="0"
     fit-margin-bottom="0" />
  <metadata
     id="metadata7">
    <rdf:RDF>
      <cc:Work
         rdf:about="">
        <dc:format>image/svg+xml</dc:format>
        <dc:type
           rdf:resource="http://purl.org/dc/dcmitype/StillImage" />
        <dc:title></dc:title>
      </cc:Work>
    </rdf:RDF>
  </metadata>
  <g
     inkscape:label="Capa 1"
     inkscape:groupmode="layer"
     id="layer1"
     transform="translate(9.9704685,-378.69067)">
    <path
       style="fill:#000000"
       d="m -4.8603927,465.38445 c -4.93212,-2.73366 -5.03676,-3.60602 -5.07464,-42.30744 -0.0255,-26.00613 0.30106,-36.94146 1.15925,-38.82499 2.25156,-4.94165 4.89349,-5.47206 27.2556557,-5.47206 l 20.549659,0 0.0037,6.25 c 0.0064,10.60176 5.216543,15.75 15.939501,15.75 l 5.140942,0 -0.292071,30.08329 -0.292072,30.08329 -0.172185,5.94717 -6.359368,-0.11375 -27.734224,-0.0354 C 4.1668773,466.71766 -3.0424227,466.39212 -4.8603927,465.38449 z M 53.956952,460.1451 c 1.970561,-2.50516 2.07258,-3.8588 2.07258,-27.5 l 0,-24.86514 -31,0 -31.0000047,0 0,25.5 c 0,24.16667 0.10458,25.60458 2,27.5 1.90097,1.90097 3.33334001,2 28.9274247,2 l 26.92742,0 z M 2.0295273,449.27996 c 0,-1.28889 3.166671,-1.5 22.5000047,-1.5 19.333333,0 22.5,0.21111 22.5,1.5 0,1.28889 -3.166667,1.5 -22.5,1.5 -19.3333337,0 -22.5000047,-0.21111 -22.5000047,-1.5 z m 0,-10 c 0,-1.28889 3.166671,-1.5 22.5000047,-1.5 19.333333,0 22.5,0.21111 22.5,1.5 0,1.28889 -3.166667,1.5 -22.5,1.5 -19.3333337,0 -22.5000047,-0.21111 -22.5000047,-1.5 z m 0,-9 c 0,-1.28889 3.166671,-1.5 22.5000047,-1.5 19.333333,0 22.5,0.21111 22.5,1.5 0,1.28889 -3.166667,1.5 -22.5,1.5 -19.3333337,0 -22.5000047,-0.21111 -22.5000047,-1.5 z m 0,-10 c 0,-1.28889 3.166671,-1.5 22.5000047,-1.5 19.333333,0 22.5,0.21111 22.5,1.5 0,1.28889 -3.166667,1.5 -22.5,1.5 -19.3333337,0 -22.5000047,-0.21111 -22.5000047,-1.5 z m 8.1712637,-22.15499 c 2.278636,-2.06213 2.370418,-7.08898 0.173754,-9.51627 -0.9749814,-1.07734 -3.0293997,-1.82874 -5.0000017,-1.82874 l -3.345016,0 0,6.5 0,6.5 3.171263,0 c 1.744193,0 3.9941933,-0.74474 5.0000007,-1.65499 z m -5.1712597,-4.84501 c 0,-4.26049 0.135603,-4.49779 2,-3.5 1.157522,0.61949 2.0000003,2.09382 2.0000003,3.5 0,1.40618 -0.8424783,2.88051 -2.0000003,3.5 -1.864397,0.99779 -2,0.76049 -2,-3.5 z m 14.5000007,0 c 0,-6.42424 -0.03205,-6.5 -2.75,-6.5 -1.512499,0 -2.75,0.45 -2.75,1 0,0.55 0.45,1 1,1 0.550001,0 1,2.025 1,4.5 0,2.475 -0.449999,4.5 -1,4.5 -0.55,0 -1,0.45 -1,1 0,0.55 1.237501,1 2.75,1 2.71795,0 2.75,-0.0758 2.75,-6.5 z m 8.918213,5.89301 c 2.23569,-0.85791 1.96561,-5.13636 -0.418213,-6.62508 -1.1,-0.68696 -2,-1.59078 -2,-2.00848 0,-0.4177 0.9,-0.75945 2,-0.75945 1.147135,0 2,-0.66667 2,-1.56336 0,-1.1614 -0.835612,-1.48279 -3.25,-1.25 -2.692586,0.25962 -3.30349,0.77694 -3.561876,3.01624 -0.216062,1.87252 0.321567,3.09848 1.75,3.99055 2.61242,1.63148 2.638327,2.80657 0.06188,2.80657 -1.111111,0 -2,0.66667 -2,1.5 0,1.53983 2.611127,1.97019 5.418209,0.89301 z m 17.242438,-5.00509 c -2.770661,-2.77066 -4.025328,-7.09337 -3.487645,-12.01599 0.322702,-2.95442 0.436734,-2.87806 8.687779,5.81718 l 8.360784,8.81089 -5.474421,0 c -4.568686,0 -5.906585,-0.43216 -8.086497,-2.61208 z"
       id="path3311"
       inkscape:connector-curvature="0"
       sodipodi:nodetypes="csssccscccccsccsscccssscsssssssssssssssssssssssscccsssssssssssssssssssssssssssssscss" />
  </g>
</svg>
