<?xml version="1.0" encoding="UTF-8" standalone="no"?>
<!-- Created with Inkscape (http://www.inkscape.org/) -->

<svg
   xmlns:dc="http://purl.org/dc/elements/1.1/"
   xmlns:cc="http://creativecommons.org/ns#"
   xmlns:rdf="http://www.w3.org/1999/02/22-rdf-syntax-ns#"
   xmlns:svg="http://www.w3.org/2000/svg"
   xmlns="http://www.w3.org/2000/svg"
   xmlns:sodipodi="http://sodipodi.sourceforge.net/DTD/sodipodi-0.dtd"
   xmlns:inkscape="http://www.inkscape.org/namespaces/inkscape"
   width="210mm"
   height="297mm"
   id="svg2"
   version="1.1"
   inkscape:version="0.48.4 r9939"
   inkscape:export-filename="/home/bihos/Imágenes/estudiante.png"
   inkscape:export-xdpi="90"
   inkscape:export-ydpi="90"
   sodipodi:docname="Nuevo documento 1">
  <defs
     id="defs4" />
  <sodipodi:namedview
     id="base"
     pagecolor="#ffffff"
     bordercolor="#666666"
     borderopacity="1.0"
     inkscape:pageopacity="0.0"
     inkscape:pageshadow="2"
     inkscape:zoom="0.98994949"
     inkscape:cx="28.37769"
     inkscape:cy="671.93921"
     inkscape:document-units="px"
     inkscape:current-layer="layer1"
     showgrid="false"
     inkscape:window-width="1600"
     inkscape:window-height="834"
     inkscape:window-x="0"
     inkscape:window-y="27"
     inkscape:window-maximized="1" />
  <metadata
     id="metadata7">
    <rdf:RDF>
      <cc:Work
         rdf:about="">
        <dc:format>image/svg+xml</dc:format>
        <dc:type
           rdf:resource="http://purl.org/dc/dcmitype/StillImage" />
        <dc:title></dc:title>
      </cc:Work>
    </rdf:RDF>
  </metadata>
  <g
     inkscape:label="Capa 1"
     inkscape:groupmode="layer"
     id="layer1">
    <path
       style="fill:#000000"
       d="m 265.81387,460.85197 c 0,-1.49846 5.19021,-14.62673 11.53381,-29.1739 6.3436,-14.54717 11.53382,-27.31029 11.53382,-28.36245 0,-1.05216 -3.11465,-3.32451 -6.92141,-5.04966 -8.55097,-3.87512 -10.6937,-10.66944 -20.67337,-65.55242 -8.26456,-45.45096 -8.07863,-54.9922 0.97761,-50.17155 3.94624,2.10059 6.78108,11.55959 11.85546,39.55781 3.66799,20.23835 7.96079,42.98352 9.53957,50.54475 l 2.87045,13.7477 19.06039,-0.84199 19.06036,-0.842 20.10338,-25.33296 c 14.53103,-18.31103 19.08608,-25.95832 16.43324,-27.58903 -2.01861,-1.24086 -3.20184,-4.68259 -2.62942,-7.64832 0.95345,-4.93973 4.57187,-5.4586 43.12048,-6.18349 34.35974,-0.64612 42.73038,-0.0114 45.62643,3.4593 6.9382,8.315 0.27913,10.23769 -35.45755,10.23769 l -35.28402,0 -20.80774,27.10764 -20.80773,27.10764 18.05617,0.85474 c 16.22188,0.76788 18.14976,1.51025 18.97757,7.30758 0.78384,5.4894 -0.40008,6.45285 -7.9295,6.45285 -4.868,0 -8.85091,0.71111 -8.85091,1.58021 0,0.86909 5.19022,13.70901 11.53382,28.53311 12.31633,28.78157 13.62873,34.12869 7.9295,32.30744 -1.98238,-0.63347 -9.44332,-14.93828 -16.57987,-31.78843 l -12.97554,-30.63663 -23.04988,0.71913 -23.04984,0.71914 -12.925,30.83031 c -7.10875,16.95666 -14.57768,30.8303 -16.59763,30.8303 -2.01997,0 -3.67265,-1.22601 -3.67265,-2.72451 z m 137.54053,-9.46422 c -4.35269,-4.40927 -8.95713,-17.08363 -14.53911,-40.02077 l -8.169,-33.56792 -17.06025,-0.84731 -17.06024,-0.8473 13.0301,-16.49063 c 12.95233,-16.3922 13.12186,-16.49063 28.40007,-16.49063 11.00372,0 16.64656,1.42574 19.86394,5.01889 2.4717,2.76039 9.44721,25.48941 15.50114,50.50896 l 11.00715,45.49004 -0.7246,1.4178 c -5.95769,11.65709 -22.13951,14.04396 -30.2492,5.82887 z M 302.88373,373.18948 c -10.25287,-5.53993 -14.00223,-17.75363 -14.00223,-45.61298 0,-27.54446 7.94801,-59.15545 17.38588,-69.14754 18.55933,-19.64916 43.45256,-12.6545 43.02818,12.09033 l -0.13841,8.07536 -4.91732,-10.03778 c -8.08579,-16.50565 -29.40715,-14.87419 -29.40715,2.25017 0,9.45165 12.198,30.05908 21.30616,35.99488 6.53086,4.25613 6.9903,5.94404 5.50748,20.23371 -1.48275,14.28917 -1.10671,15.6708 4.50579,16.55587 5.63034,0.88789 5.06138,2.29375 -7.06468,17.45629 -14.28624,17.86369 -21.2756,20.20773 -36.20361,12.14169 z m 44.77386,-64.23234 c -20.55523,-9.28425 -36.41268,-37.22419 -26.00343,-45.81661 7.06435,-5.83135 14.39646,-2.5192 19.8298,8.95776 2.76896,5.84893 8.86991,12.60713 13.55772,15.01823 9.69489,4.98645 28.74669,5.69896 43.07757,1.61103 13.15139,-3.75146 21.16655,0.57388 19.96965,10.7765 -0.71705,6.11249 -3.17292,8.2978 -12.42748,11.05844 -17.77961,5.30368 -44.33456,4.56872 -58.00383,-1.60535 z m 68.06665,1.53236 c 1.55003,0.33355 5.29365,-4.56354 5.15256,-6.13466 -0.345,-3.84096 3.52708,5.6437 3.52708,7.22106 0,1.57738 -1.29756,2.86795 -2.88346,2.86795 -1.5859,0 -10.36594,-4.93764 -5.79618,-3.95435 z m -24.15991,-30.76159 c 0,-1.57736 0.66039,-3.3206 2.24629,-3.3206 1.5859,0 13.2,7.59586 12.03125,8.66202 -1.18329,1.07943 -4.02825,1.41943 -6.47887,1.82681 -1.56419,0.26013 -7.79867,-5.59085 -7.79867,-7.16823 z m -47.326,-38.81285 c -32.74948,-16.39418 -15.54471,-66.84856 20.50159,-60.12263 11.16381,2.08308 23.49829,14.03175 26.18163,25.36271 2.13819,9.02892 -3.46565,24.25003 -11.53411,31.32878 -8.44873,7.41235 -24.13694,8.94377 -35.14911,3.43114 z"
       id="path2996"
       inkscape:connector-curvature="0"
       sodipodi:nodetypes="sssssssscccsssssscccssssssscccssssscccsssscsscssccssssssccsssssssssssssssssssssss"
       inkscape:export-xdpi="90"
       inkscape:export-ydpi="90" />
  </g>
</svg>
