<?xml version="1.0" encoding="UTF-8" standalone="no"?>
<!-- Created with Inkscape (http://www.inkscape.org/) -->

<svg
   xmlns:dc="http://purl.org/dc/elements/1.1/"
   xmlns:cc="http://creativecommons.org/ns#"
   xmlns:rdf="http://www.w3.org/1999/02/22-rdf-syntax-ns#"
   xmlns:svg="http://www.w3.org/2000/svg"
   xmlns="http://www.w3.org/2000/svg"
   xmlns:sodipodi="http://sodipodi.sourceforge.net/DTD/sodipodi-0.dtd"
   xmlns:inkscape="http://www.inkscape.org/namespaces/inkscape"
   width="198.98701"
   height="180.03374"
   id="svg2"
   version="1.1"
   inkscape:version="0.48.4 r9939"
   sodipodi:docname="out.svg">
  <defs
     id="defs4" />
  <sodipodi:namedview
     id="base"
     pagecolor="#ffffff"
     bordercolor="#666666"
     borderopacity="1.0"
     inkscape:pageopacity="0.0"
     inkscape:pageshadow="2"
     inkscape:zoom="1.4"
     inkscape:cx="-131.9131"
     inkscape:cy="-18.78273"
     inkscape:document-units="px"
     inkscape:current-layer="layer1"
     showgrid="false"
     inkscape:window-width="1600"
     inkscape:window-height="834"
     inkscape:window-x="0"
     inkscape:window-y="27"
     inkscape:window-maximized="1"
     fit-margin-top="0"
     fit-margin-left="0"
     fit-margin-right="0"
     fit-margin-bottom="0" />
  <metadata
     id="metadata7">
    <rdf:RDF>
      <cc:Work
         rdf:about="">
        <dc:format>image/svg+xml</dc:format>
        <dc:type
           rdf:resource="http://purl.org/dc/dcmitype/StillImage" />
        <dc:title></dc:title>
      </cc:Work>
    </rdf:RDF>
  </metadata>
  <g
     inkscape:label="Capa 1"
     inkscape:groupmode="layer"
     id="layer1"
     transform="translate(-21.029534,-275.29586)">
    <path
       style="fill:#000000"
       d="m 62.426694,453.86687 c -3.793814,-1.6515 -8.707903,-6.33745 -10.713785,-10.2164 -1.284294,-2.48355 -3.777919,-11.12215 -13.669419,-47.35461 -0.975979,-3.575 -5.203383,-18.96175 -9.394232,-34.19278 -4.190848,-15.23103 -7.619724,-28.81802 -7.619724,-30.1933 0,-5.20978 2.129863,-5.61392 29.585882,-5.61392 l 25.140869,0 11.636625,13.87921 c 6.400143,7.63357 11.636531,14.04607 11.636417,14.25 -1.14e-4,0.20394 -11.915037,0.37079 -26.477607,0.37079 l -26.477401,0 -2.772392,2.7732 c -2.222531,2.22318 -2.746024,3.61152 -2.639442,7 0.07312,2.32474 3.833866,16.3768 8.357207,31.2268 4.523341,14.85 9.145718,30.0375 10.27195,33.75 1.126232,3.7125 2.315489,6.74921 2.642793,6.74825 0.327305,-9.6e-4 3.702196,-11.13846 7.499758,-24.75 3.797563,-13.61154 7.722002,-26.39222 8.720978,-28.40152 2.355241,-4.73724 8.008535,-9.3483 13.230641,-10.79146 2.955772,-0.81684 21.153578,-1.06058 63.476278,-0.8502 l 59.33257,0.29493 2.91743,3.26578 c 2.12861,2.38275 2.91391,4.27545 2.90437,7 -0.0163,4.64893 -15.40261,59.69349 -17.64056,63.10903 -2.07702,3.16994 -6.82435,7.27124 -10.22098,8.83009 -4.04084,1.8545 -125.448348,1.7292 -129.728226,-0.13389 z m 46.789996,-107.77998 -17.095189,-20.29103 6.954017,-0.29381 c 6.416212,-0.27109 6.953802,-0.46443 6.951202,-2.5 -10e-4,-1.2134 -1.35155,-11.37391 -3,-22.57891 -1.64845,-11.20499 -2.99719,-21.44249 -2.99719,-22.75 l 0,-2.37728 13.43262,0 c 11.94226,0 13.4862,0.19416 13.91568,1.75 0.2657,0.9625 1.97145,12.2125 3.79056,25 l 3.30748,23.25 7.36289,0 7.3629,0 -3.71806,6.75 c -2.04494,3.7125 -5.86741,10.575 -8.49439,15.25 -2.62697,4.675 -6.10404,10.88097 -7.72682,13.79103 l -2.95051,5.29104 -17.09519,-20.29104 z m 53.34483,15.89813 c -1.85569,-2.83213 -8.38584,-6.61671 -11.92186,-6.90935 -1.43557,-0.11882 -2.61013,-0.3608 -2.61013,-0.53776 0,-0.17695 0.93619,-2.15681 2.08042,-4.39968 1.96699,-3.85563 2.27436,-4.04648 5.63779,-3.50067 6.85722,1.11277 16.28179,10.372 16.28179,15.99616 0,2.78657 -7.55636,2.26885 -9.46801,-0.6487 z"
       id="path3458"
       inkscape:connector-curvature="0" />
  </g>
</svg>
