<?xml version="1.0" encoding="UTF-8" standalone="no"?>
<!-- Created with Inkscape (http://www.inkscape.org/) -->

<svg
   xmlns:dc="http://purl.org/dc/elements/1.1/"
   xmlns:cc="http://creativecommons.org/ns#"
   xmlns:rdf="http://www.w3.org/1999/02/22-rdf-syntax-ns#"
   xmlns:svg="http://www.w3.org/2000/svg"
   xmlns="http://www.w3.org/2000/svg"
   xmlns:sodipodi="http://sodipodi.sourceforge.net/DTD/sodipodi-0.dtd"
   xmlns:inkscape="http://www.inkscape.org/namespaces/inkscape"
   width="70.000038"
   height="88.000221"
   id="svg2"
   version="1.1"
   inkscape:version="0.48.4 r9939"
   sodipodi:docname="res.svg">
  <defs
     id="defs4" />
  <sodipodi:namedview
     id="base"
     pagecolor="#ffffff"
     bordercolor="#666666"
     borderopacity="1.0"
     inkscape:pageopacity="0.0"
     inkscape:pageshadow="2"
     inkscape:zoom="1.979899"
     inkscape:cx="-25.585359"
     inkscape:cy="29.428184"
     inkscape:document-units="px"
     inkscape:current-layer="layer1"
     showgrid="false"
     inkscape:window-width="1600"
     inkscape:window-height="834"
     inkscape:window-x="0"
     inkscape:window-y="27"
     inkscape:window-maximized="1"
     fit-margin-top="0"
     fit-margin-left="0"
     fit-margin-right="0"
     fit-margin-bottom="0" />
  <metadata
     id="metadata7">
    <rdf:RDF>
      <cc:Work
         rdf:about="">
        <dc:format>image/svg+xml</dc:format>
        <dc:type
           rdf:resource="http://purl.org/dc/dcmitype/StillImage" />
        <dc:title></dc:title>
      </cc:Work>
    </rdf:RDF>
  </metadata>
  <g
     inkscape:label="Capa 1"
     inkscape:groupmode="layer"
     id="layer1"
     transform="translate(-153.60096,-87.547598)">
    <path
       style="fill:#000000"
       d="m 153.60796,171.92439 -0.007,-3.17679 0,-36.55295 c 0,-26.20989 0.33805,-37.294882 1.19469,-39.174992 2.24273,-4.92228 4.9309,-5.47206 26.75565,-5.47206 l 20.04966,0 0.022,4.75 c 0.0121,2.6125 0.88591,6.6532 1.94186,8.979342 2.60868,5.74667 6.95573,8.26216 14.28618,8.26692 l 5.75,0.004 -0.002,28.25 c -10e-4,24.89732 -0.20906,28.66372 -1.75,31.73609 -2.91114,5.8043 -3.92632,5.9829 -34.09845,5.99917 l -27.34995,0.0147 -6.74821,-0.007 z m 62.59316,-1.1421 c 2.99207,-1.99786 3.3997,-5.55522 3.3997,-29.66895 l 0,-24.56574 -31,0 -31,0 0,25.9433 c 0,25.67544 0.0229,25.95936 2.22251,27.5 1.87739,1.31497 6.34177,1.55432 28.75,1.54139 14.59012,-0.008 27.02262,-0.34593 27.62779,-0.75 z m -50.6003,-12.73469 c 0,-1.28889 3.16667,-1.5 22.5,-1.5 19.33333,0 22.5,0.21111 22.5,1.5 0,1.28889 -3.16667,1.5 -22.5,1.5 -19.33333,0 -22.5,-0.21111 -22.5,-1.5 z m 0,-10 c 0,-1.28889 3.16667,-1.5 22.5,-1.5 19.33333,0 22.5,0.21111 22.5,1.5 0,1.28889 -3.16667,1.5 -22.5,1.5 -19.33333,0 -22.5,-0.21111 -22.5,-1.5 z m 0,-9 c 0,-1.28889 3.16667,-1.5 22.5,-1.5 19.33333,0 22.5,0.21111 22.5,1.5 0,1.28889 -3.16667,1.5 -22.5,1.5 -19.33333,0 -22.5,-0.21111 -22.5,-1.5 z m 0,-10 c 0,-1.28889 3.16667,-1.5 22.5,-1.5 19.33333,0 22.5,0.21111 22.5,1.5 0,1.28889 -3.16667,1.5 -22.5,1.5 -19.33333,0 -22.5,-0.21111 -22.5,-1.5 z m 3.22749,-22.25 0.36032,-2.75 1.36661,2.75 c 0.75164,1.5125 2.19438,2.75 3.20609,2.75 2.23991,0 2.27368,-0.40771 0.28515,-3.44258 -1.03331,-1.57703 -1.20091,-2.59065 -0.5,-3.02384 1.4272,-0.88205 1.33589,-4.852032 -0.14566,-6.333582 -0.66,-0.66 -2.685,-1.2 -4.5,-1.2 l -3.3,0 0,7.000002 c 0,5.41141 0.32534,7 1.43358,7 0.80988,0 1.59034,-1.19642 1.79391,-2.75 z m -0.22749,-6.66667 c 0,-0.870832 0.7125,-1.583332 1.58333,-1.583332 1.76593,0 1.45839,2.152762 -0.39583,2.770832 -0.65312,0.21771 -1.1875,-0.31666 -1.1875,-1.1875 z m 17,7.91667 c 0,-0.93333 -0.94444,-1.5 -2.5,-1.5 -1.55556,0 -2.5,-0.56667 -2.5,-1.5 0,-0.93333 0.94444,-1.5 2.5,-1.5 1.55556,0 2.5,-0.56667 2.5,-1.5 0,-0.93333 -0.94444,-1.5 -2.5,-1.5 -1.375,0 -2.5,-0.45 -2.5,-1.000002 0,-0.55 1.125,-1 2.5,-1 1.55556,0 2.5,-0.56667 2.5,-1.5 0,-1.08333 -1.11111,-1.5 -4,-1.5 l -4,0 0,7.000002 0,7 4,0 c 2.88889,0 4,-0.41667 4,-1.5 z m 8.41821,0.89301 c 2.4103,-0.92492 1.89105,-5.00458 -0.91821,-7.21435 -1.375,-1.08158 -2.5,-2.239242 -2.5,-2.572582 0,-0.33334 1.125,-0.60608 2.5,-0.60608 1.59854,0 2.5,-0.56264 2.5,-1.56037 0,-1.19159 -0.88625,-1.48701 -3.75,-1.25 -3.21123,0.26578 -3.79385,0.6888 -4.05523,2.94435 -0.21595,1.863582 0.44214,3.221852 2.25,4.643922 3.23321,2.54324 3.2526,3.58856 0.0552,2.97735 -1.94242,-0.37132 -2.5,-0.0628 -2.5,1.38342 0,1.91791 3.10674,2.52507 6.41822,1.25434 z m 15.69252,-5.95329 c -3.12308,-2.6279 -4.54795,-6.899122 -3.94239,-11.817762 0.31601,-2.56681 0.73167,-2.29117 8.80958,5.84206 l 8.47792,8.535982 -5.15119,0 c -4.068,0 -5.79103,-0.53838 -8.19392,-2.56028 z"
       id="path3249"
       inkscape:connector-curvature="0"
       sodipodi:nodetypes="ccssscsscccssccccscccssccssssssssssssssssssssscsssssscssssssssssssssssscccsscsssssssssccssscss" />
  </g>
</svg>
